<svg width="850" height="750" viewBox="0 0 850 750" fill="none" xmlns="http://www.w3.org/2000/svg">
<rect width="850" height="750" fill="#373D4A"/>
<path d="M339.667 567H254.333C248.675 567 243.249 564.752 239.248 560.752C235.248 556.751 233 551.325 233 545.667V460.333C233 454.675 230.752 449.249 226.752 445.248C222.751 441.248 217.325 439 211.667 439C206.009 439 200.582 441.248 196.582 445.248C192.581 449.249 190.333 454.675 190.333 460.333V545.667C190.333 562.641 197.076 578.919 209.078 590.922C221.081 602.924 237.359 609.667 254.333 609.667H339.667C345.325 609.667 350.751 607.419 354.752 603.418C358.752 599.418 361 593.991 361 588.333C361 582.675 358.752 577.249 354.752 573.248C350.751 569.248 345.325 567 339.667 567V567ZM638.333 439C632.675 439 627.249 441.248 623.248 445.248C619.248 449.249 617 454.675 617 460.333V545.667C617 551.325 614.752 556.751 610.752 560.752C606.751 564.752 601.325 567 595.667 567H510.333C504.675 567 499.249 569.248 495.248 573.248C491.248 577.249 489 582.675 489 588.333C489 593.991 491.248 599.418 495.248 603.418C499.249 607.419 504.675 609.667 510.333 609.667H595.667C612.64 609.667 628.919 602.924 640.921 590.922C652.924 578.919 659.667 562.641 659.667 545.667V460.333C659.667 454.675 657.419 449.249 653.418 445.248C649.417 441.248 643.991 439 638.333 439ZM595.667 140.333H510.333C504.675 140.333 499.249 142.581 495.248 146.582C491.248 150.583 489 156.009 489 161.667C489 167.325 491.248 172.751 495.248 176.752C499.249 180.752 504.675 183 510.333 183H595.667C601.325 183 606.751 185.248 610.752 189.248C614.752 193.249 617 198.675 617 204.333V289.667C617 295.325 619.248 300.751 623.248 304.752C627.249 308.752 632.675 311 638.333 311C643.991 311 649.417 308.752 653.418 304.752C657.419 300.751 659.667 295.325 659.667 289.667V204.333C659.667 187.36 652.924 171.081 640.921 159.079C628.919 147.076 612.64 140.333 595.667 140.333V140.333ZM211.667 311C217.325 311 222.751 308.752 226.752 304.752C230.752 300.751 233 295.325 233 289.667V204.333C233 198.675 235.248 193.249 239.248 189.248C243.249 185.248 248.675 183 254.333 183H339.667C345.325 183 350.751 180.752 354.752 176.752C358.752 172.751 361 167.325 361 161.667C361 156.009 358.752 150.583 354.752 146.582C350.751 142.581 345.325 140.333 339.667 140.333H254.333C237.359 140.333 221.081 147.076 209.078 159.079C197.076 171.081 190.333 187.36 190.333 204.333V289.667C190.333 295.325 192.581 300.751 196.582 304.752C200.582 308.752 206.009 311 211.667 311ZM382.333 225.667H297C291.342 225.667 285.916 227.914 281.915 231.915C277.914 235.916 275.667 241.342 275.667 247V332.333C275.667 337.991 277.914 343.418 281.915 347.418C285.916 351.419 291.342 353.667 297 353.667H382.333C387.991 353.667 393.417 351.419 397.418 347.418C401.419 343.418 403.667 337.991 403.667 332.333V247C403.667 241.342 401.419 235.916 397.418 231.915C393.417 227.914 387.991 225.667 382.333 225.667ZM361 311H318.333V268.333H361V311ZM467.667 353.667H553C558.658 353.667 564.084 351.419 568.085 347.418C572.086 343.418 574.333 337.991 574.333 332.333V247C574.333 241.342 572.086 235.916 568.085 231.915C564.084 227.914 558.658 225.667 553 225.667H467.667C462.009 225.667 456.582 227.914 452.582 231.915C448.581 235.916 446.333 241.342 446.333 247V332.333C446.333 337.991 448.581 343.418 452.582 347.418C456.582 351.419 462.009 353.667 467.667 353.667ZM489 268.333H531.667V311H489V268.333ZM382.333 396.333H297C291.342 396.333 285.916 398.581 281.915 402.582C277.914 406.583 275.667 412.009 275.667 417.667V503C275.667 508.658 277.914 514.084 281.915 518.085C285.916 522.086 291.342 524.333 297 524.333H382.333C387.991 524.333 393.417 522.086 397.418 518.085C401.419 514.084 403.667 508.658 403.667 503V417.667C403.667 412.009 401.419 406.583 397.418 402.582C393.417 398.581 387.991 396.333 382.333 396.333ZM361 481.667H318.333V439H361V481.667ZM467.667 460.333C473.325 460.333 478.751 458.086 482.752 454.085C486.752 450.084 489 444.658 489 439C494.658 439 500.084 436.752 504.085 432.752C508.086 428.751 510.333 423.325 510.333 417.667C510.333 412.009 508.086 406.583 504.085 402.582C500.084 398.581 494.658 396.333 489 396.333H467.667C462.009 396.333 456.582 398.581 452.582 402.582C448.581 406.583 446.333 412.009 446.333 417.667V439C446.333 444.658 448.581 450.084 452.582 454.085C456.582 458.086 462.009 460.333 467.667 460.333ZM553 396.333C547.342 396.333 541.916 398.581 537.915 402.582C533.914 406.583 531.667 412.009 531.667 417.667V481.667C526.009 481.667 520.582 483.914 516.582 487.915C512.581 491.916 510.333 497.342 510.333 503C510.333 508.658 512.581 514.084 516.582 518.085C520.582 522.086 526.009 524.333 531.667 524.333H553C558.658 524.333 564.084 522.086 568.085 518.085C572.086 514.084 574.333 508.658 574.333 503V417.667C574.333 412.009 572.086 406.583 568.085 402.582C564.084 398.581 558.658 396.333 553 396.333ZM467.667 481.667C463.447 481.667 459.323 482.918 455.814 485.262C452.306 487.606 449.572 490.938 447.957 494.836C446.343 498.734 445.92 503.024 446.743 507.162C447.566 511.3 449.598 515.101 452.582 518.085C455.565 521.068 459.366 523.1 463.505 523.923C467.643 524.747 471.932 524.324 475.831 522.709C479.729 521.095 483.061 518.36 485.405 514.852C487.749 511.344 489 507.219 489 503C489 497.342 486.752 491.916 482.752 487.915C478.751 483.914 473.325 481.667 467.667 481.667Z" fill="white"/>
</svg>
