<svg width="850" height="750" viewBox="0 0 850 750" fill="none" xmlns="http://www.w3.org/2000/svg">
<rect width="850" height="750" fill="#373D4A"/>
<path d="M594.39 319.035C582.572 291.279 564.12 266.848 540.656 247.888C517.191 228.927 489.431 216.016 459.812 210.289L486.568 167.48L459.432 150.52L424.127 207.008C388.165 207.175 353.039 217.874 323.091 237.783C293.142 257.693 269.682 285.94 255.61 319.035C236.761 319.393 218.804 327.133 205.601 340.59C192.397 354.047 185 372.147 185 391C185 409.853 192.397 427.953 205.601 441.41C218.804 454.867 236.761 462.607 255.61 462.965C269.742 496.196 293.337 524.536 323.456 544.457C353.575 564.378 388.889 575 425 575C461.111 575 496.425 564.378 526.544 544.457C556.664 524.536 580.258 496.196 594.39 462.965C613.24 462.607 631.196 454.867 644.4 441.41C657.603 427.953 665 409.853 665 391C665 372.147 657.603 354.047 644.4 340.59C631.196 327.133 613.24 319.393 594.39 319.035ZM621.542 419.01C614.224 426.495 604.249 430.793 593.782 430.971L573.057 431.365L564.944 450.439C553.271 477.896 533.779 501.312 508.895 517.772C484.011 534.232 454.836 543.008 425.001 543.008C395.166 543.008 365.99 534.232 341.106 517.772C316.222 501.312 296.73 477.896 285.057 450.439L276.943 431.365L256.218 430.971C245.747 430.775 235.77 426.478 228.434 419.003C221.098 411.528 216.988 401.473 216.988 391C216.988 380.527 221.098 370.472 228.434 362.997C235.77 355.522 245.747 351.225 256.218 351.029L276.943 350.635L285.057 331.561C296.731 304.105 316.223 280.689 341.106 264.229C365.99 247.77 395.166 238.994 425.001 238.994C454.835 238.994 484.011 247.77 508.895 264.229C533.778 280.689 553.271 304.105 564.944 331.561L573.057 350.635L593.782 351.029C601.592 351.177 609.188 353.609 615.631 358.027C622.074 362.444 627.081 368.652 630.034 375.884C632.987 383.116 633.757 391.054 632.247 398.719C630.738 406.383 627.016 413.438 621.542 419.01V419.01Z" fill="white"/>
<path d="M337 351H377V391H337V351Z" fill="white"/>
<path d="M473 351H513V391H473V351Z" fill="white"/>
<path d="M425 503C435.506 503 445.909 500.931 455.615 496.91C465.321 492.89 474.14 486.997 481.569 479.569C488.997 472.14 494.89 463.321 498.91 453.615C502.931 443.909 505 433.506 505 423H345C345 433.506 347.069 443.909 351.09 453.615C355.11 463.321 361.003 472.14 368.431 479.569C383.434 494.571 403.783 503 425 503V503Z" fill="white"/>
</svg>
