<svg width="850" height="750" viewBox="0 0 850 750" fill="none" xmlns="http://www.w3.org/2000/svg">
<g clip-path="url(#clip0_206:11)">
<rect width="850" height="750" fill="white"/>
<path d="M594.39 182.035C582.572 154.279 564.12 129.848 540.656 110.888C517.191 91.9271 489.431 79.0165 459.812 73.289L486.568 30.48L459.432 13.52L424.127 70.008C388.165 70.1749 353.039 80.8739 323.091 100.783C293.142 120.693 269.682 148.94 255.61 182.035C236.761 182.393 218.804 190.133 205.601 203.59C192.397 217.047 185 235.147 185 254C185 272.853 192.397 290.953 205.601 304.41C218.804 317.867 236.761 325.607 255.61 325.965C269.742 359.196 293.337 387.536 323.456 407.457C353.575 427.378 388.889 438 425 438C461.111 438 496.425 427.378 526.544 407.457C556.664 387.536 580.258 359.196 594.39 325.965C613.24 325.607 631.196 317.867 644.4 304.41C657.603 290.953 665 272.853 665 254C665 235.147 657.603 217.047 644.4 203.59C631.196 190.133 613.24 182.393 594.39 182.035ZM621.542 282.01C614.224 289.495 604.249 293.793 593.782 293.971L573.057 294.365L564.944 313.439C553.271 340.896 533.779 364.312 508.895 380.772C484.011 397.232 454.836 406.008 425.001 406.008C395.166 406.008 365.99 397.232 341.106 380.772C316.222 364.312 296.73 340.896 285.057 313.439L276.943 294.365L256.218 293.971C245.747 293.775 235.77 289.478 228.434 282.003C221.098 274.528 216.988 264.473 216.988 254C216.988 243.527 221.098 233.472 228.434 225.997C235.77 218.522 245.747 214.225 256.218 214.029L276.943 213.635L285.057 194.561C296.731 167.105 316.223 143.689 341.106 127.229C365.99 110.77 395.166 101.994 425.001 101.994C454.835 101.994 484.011 110.77 508.895 127.229C533.778 143.689 553.271 167.105 564.944 194.561L573.057 213.635L593.782 214.029C601.592 214.177 609.188 216.609 615.631 221.027C622.074 225.444 627.081 231.652 630.034 238.884C632.987 246.116 633.757 254.054 632.247 261.719C630.738 269.383 627.016 276.438 621.542 282.01V282.01Z" fill="#1B1818"/>
<path d="M337 214H377V254H337V214Z" fill="#1B1818"/>
<path d="M473 214H513V254H473V214Z" fill="#1B1818"/>
<path d="M425 366C435.506 366 445.909 363.931 455.615 359.91C465.321 355.89 474.14 349.997 481.569 342.569C488.997 335.14 494.89 326.321 498.91 316.615C502.931 306.909 505 296.506 505 286H345C345 296.506 347.069 306.909 351.09 316.615C355.11 326.321 361.003 335.14 368.431 342.569C383.434 357.571 403.783 366 425 366V366Z" fill="#1B1818"/>
<path d="M223.78 560.65C223.559 565.449 222.264 569.696 219.896 573.391C217.528 577.053 214.197 579.895 209.902 581.916C205.64 583.937 200.761 584.947 195.267 584.947C186.205 584.947 179.069 581.995 173.859 576.09C168.649 570.186 166.044 561.85 166.044 551.083V547.672C166.044 540.915 167.212 535.011 169.549 529.958C171.917 524.875 175.311 520.959 179.732 518.212C184.153 515.434 189.268 514.044 195.078 514.044C203.445 514.044 210.171 516.255 215.254 520.675C220.338 525.064 223.227 531.127 223.922 538.863H207.345C207.218 534.663 206.161 531.648 204.171 529.816C202.182 527.985 199.151 527.069 195.078 527.069C190.941 527.069 187.91 528.617 185.984 531.711C184.058 534.805 183.047 539.747 182.953 546.536V551.414C182.953 558.771 183.868 564.028 185.7 567.186C187.563 570.344 190.752 571.922 195.267 571.922C199.088 571.922 202.008 571.022 204.029 569.223C206.05 567.423 207.124 564.565 207.25 560.65H223.78ZM259.776 584C259.208 582.958 258.702 581.427 258.26 579.406C255.324 583.1 251.219 584.947 245.946 584.947C241.115 584.947 237.01 583.495 233.631 580.59C230.253 577.653 228.563 573.975 228.563 569.554C228.563 563.997 230.616 559.797 234.721 556.956C238.826 554.114 244.793 552.693 252.624 552.693H257.55V549.993C257.55 545.288 255.513 542.936 251.44 542.936C247.651 542.936 245.756 544.799 245.756 548.525H229.795C229.795 543.568 231.895 539.542 236.094 536.447C240.325 533.353 245.709 531.806 252.245 531.806C258.781 531.806 263.944 533.4 267.733 536.589C271.522 539.778 273.464 544.152 273.559 549.709V572.396C273.622 577.101 274.348 580.7 275.737 583.195V584H259.776ZM249.782 573.58C251.771 573.58 253.413 573.154 254.708 572.301C256.034 571.449 256.981 570.486 257.55 569.412V561.218H252.908C247.351 561.218 244.572 563.713 244.572 568.702C244.572 570.154 245.062 571.338 246.041 572.254C247.019 573.138 248.267 573.58 249.782 573.58ZM280.426 557.998C280.426 549.883 282.179 543.489 285.684 538.815C289.188 534.142 294.083 531.806 300.366 531.806C304.945 531.806 308.797 533.605 311.923 537.205V511.25H327.932V584H313.581L312.775 578.506C309.492 582.8 305.324 584.947 300.271 584.947C294.177 584.947 289.346 582.611 285.778 577.938C282.21 573.264 280.426 566.618 280.426 557.998ZM296.388 558.992C296.388 568.086 299.04 572.633 304.345 572.633C307.881 572.633 310.407 571.149 311.923 568.181V548.667C310.47 545.636 307.976 544.12 304.439 544.12C299.514 544.12 296.846 548.099 296.435 556.056L296.388 558.992ZM365.87 584C365.301 582.958 364.796 581.427 364.354 579.406C361.417 583.1 357.313 584.947 352.04 584.947C347.208 584.947 343.104 583.495 339.725 580.59C336.347 577.653 334.657 573.975 334.657 569.554C334.657 563.997 336.71 559.797 340.814 556.956C344.919 554.114 350.887 552.693 358.718 552.693H363.644V549.993C363.644 545.288 361.607 542.936 357.534 542.936C353.745 542.936 351.85 544.799 351.85 548.525H335.889C335.889 543.568 337.988 539.542 342.188 536.447C346.419 533.353 351.803 531.806 358.339 531.806C364.875 531.806 370.038 533.4 373.827 536.589C377.616 539.778 379.558 544.152 379.652 549.709V572.396C379.715 577.101 380.442 580.7 381.831 583.195V584H365.87ZM355.876 573.58C357.865 573.58 359.507 573.154 360.802 572.301C362.128 571.449 363.075 570.486 363.644 569.412V561.218H359.002C353.445 561.218 350.666 563.713 350.666 568.702C350.666 570.154 351.155 571.338 352.134 572.254C353.113 573.138 354.36 573.58 355.876 573.58ZM415.364 569.602C415.364 568.244 414.654 567.154 413.233 566.333C411.812 565.513 409.112 564.66 405.134 563.776C401.155 562.892 397.871 561.739 395.282 560.318C392.693 558.866 390.72 557.113 389.362 555.061C388.004 553.009 387.325 550.656 387.325 548.004C387.325 543.299 389.267 539.431 393.151 536.4C397.035 533.337 402.118 531.806 408.402 531.806C415.159 531.806 420.59 533.337 424.695 536.4C428.8 539.463 430.852 543.489 430.852 548.478H414.843C414.843 544.373 412.68 542.32 408.354 542.32C406.681 542.32 405.276 542.794 404.139 543.741C403.002 544.657 402.434 545.809 402.434 547.199C402.434 548.62 403.129 549.772 404.518 550.656C405.907 551.54 408.118 552.267 411.149 552.835C414.212 553.403 416.896 554.082 419.201 554.872C426.905 557.524 430.757 562.276 430.757 569.128C430.757 573.801 428.673 577.606 424.505 580.542C420.369 583.479 415.001 584.947 408.402 584.947C404.013 584.947 400.097 584.158 396.656 582.579C393.214 581 390.53 578.853 388.604 576.138C386.678 573.422 385.715 570.565 385.715 567.565H400.634C400.697 569.933 401.487 571.67 403.002 572.775C404.518 573.848 406.46 574.385 408.828 574.385C411.007 574.385 412.633 573.943 413.707 573.059C414.812 572.175 415.364 571.022 415.364 569.602ZM456.854 520.012V532.753H465.285V543.836H456.854V567.281C456.854 569.207 457.202 570.549 457.896 571.307C458.591 572.064 459.965 572.443 462.017 572.443C463.596 572.443 464.922 572.349 465.996 572.159V583.574C463.122 584.489 460.123 584.947 456.997 584.947C451.502 584.947 447.445 583.653 444.824 581.063C442.203 578.474 440.893 574.543 440.893 569.27V543.836H434.357V532.753H440.893V520.012H456.854ZM502.607 547.199L497.35 546.82C492.33 546.82 489.109 548.399 487.688 551.556V584H471.727V532.753H486.693L487.214 539.336C489.898 534.316 493.64 531.806 498.439 531.806C500.145 531.806 501.629 531.995 502.892 532.374L502.607 547.199ZM504.644 557.903C504.644 552.788 505.639 548.241 507.628 544.262C509.617 540.252 512.475 537.174 516.201 535.026C519.927 532.879 524.3 531.806 529.32 531.806C536.993 531.806 543.04 534.19 547.46 538.958C551.881 543.694 554.091 550.151 554.091 558.329V558.897C554.091 566.886 551.865 573.233 547.413 577.938C542.993 582.611 536.993 584.947 529.415 584.947C522.121 584.947 516.264 582.769 511.843 578.411C507.423 574.022 505.039 568.086 504.691 560.603L504.644 557.903ZM520.605 558.897C520.605 563.634 521.347 567.107 522.832 569.317C524.316 571.528 526.51 572.633 529.415 572.633C535.099 572.633 538.004 568.26 538.13 559.513V557.903C538.13 548.714 535.193 544.12 529.32 544.12C523.984 544.12 521.095 548.083 520.653 556.008L520.605 558.897ZM583.267 557.998C583.267 549.883 585.02 543.489 588.524 538.815C592.029 534.142 596.924 531.806 603.207 531.806C607.785 531.806 611.638 533.605 614.764 537.205V511.25H630.772V584H616.421L615.616 578.506C612.332 582.8 608.164 584.947 603.112 584.947C597.018 584.947 592.187 582.611 588.619 577.938C585.051 573.264 583.267 566.618 583.267 557.998ZM599.229 558.992C599.229 568.086 601.881 572.633 607.186 572.633C610.722 572.633 613.248 571.149 614.764 568.181V548.667C613.311 545.636 610.817 544.12 607.28 544.12C602.354 544.12 599.686 548.099 599.276 556.056L599.229 558.992ZM664.637 584.947C656.775 584.947 650.412 582.611 645.55 577.938C640.687 573.233 638.256 567.123 638.256 559.608V558.282C638.256 553.04 639.219 548.414 641.145 544.404C643.103 540.394 645.944 537.3 649.67 535.121C653.396 532.911 657.817 531.806 662.932 531.806C670.131 531.806 675.815 534.048 679.983 538.531C684.151 542.983 686.235 549.204 686.235 557.192V563.397H654.501C655.07 566.27 656.317 568.528 658.243 570.17C660.169 571.812 662.664 572.633 665.727 572.633C670.779 572.633 674.726 570.865 677.567 567.328L684.861 575.948C682.872 578.695 680.046 580.89 676.383 582.532C672.752 584.142 668.837 584.947 664.637 584.947ZM662.837 544.12C658.164 544.12 655.386 547.215 654.501 553.403H670.605V552.172C670.668 549.614 670.021 547.641 668.663 546.251C667.305 544.831 665.363 544.12 662.837 544.12ZM144.067 671.998C144.067 663.883 145.82 657.489 149.325 652.815C152.83 648.142 157.724 645.806 164.007 645.806C168.586 645.806 172.438 647.605 175.564 651.205V625.25H191.573V698H177.222L176.417 692.506C173.133 696.8 168.965 698.947 163.913 698.947C157.819 698.947 152.987 696.611 149.419 691.938C145.851 687.264 144.067 680.618 144.067 671.998ZM160.029 672.992C160.029 682.086 162.681 686.633 167.986 686.633C171.522 686.633 174.048 685.149 175.564 682.181V662.667C174.111 659.636 171.617 658.12 168.081 658.12C163.155 658.12 160.487 662.099 160.076 670.056L160.029 672.992ZM225.438 698.947C217.575 698.947 211.213 696.611 206.35 691.938C201.487 687.233 199.056 681.123 199.056 673.608V672.282C199.056 667.04 200.019 662.414 201.945 658.404C203.903 654.394 206.745 651.3 210.471 649.121C214.197 646.911 218.617 645.806 223.732 645.806C230.932 645.806 236.615 648.048 240.783 652.531C244.951 656.983 247.035 663.204 247.035 671.192V677.397H215.302C215.87 680.27 217.117 682.528 219.043 684.17C220.97 685.812 223.464 686.633 226.527 686.633C231.579 686.633 235.526 684.865 238.368 681.328L245.662 689.948C243.672 692.695 240.846 694.89 237.184 696.532C233.552 698.142 229.637 698.947 225.438 698.947ZM223.638 658.12C218.965 658.12 216.186 661.215 215.302 667.403H231.405V666.172C231.468 663.614 230.821 661.641 229.463 660.251C228.106 658.831 226.164 658.12 223.638 658.12ZM301.077 672.755C301.077 680.712 299.277 687.075 295.677 691.843C292.109 696.579 287.278 698.947 281.184 698.947C276.479 698.947 272.611 697.226 269.58 693.785V717.703H253.619V646.753H268.538L269.012 651.489C272.075 647.7 276.1 645.806 281.089 645.806C287.404 645.806 292.314 648.142 295.819 652.815C299.324 657.457 301.077 663.851 301.077 671.998V672.755ZM285.115 671.761C285.115 662.667 282.463 658.12 277.158 658.12C273.369 658.12 270.843 659.478 269.58 662.193V682.37C270.969 685.212 273.527 686.633 277.253 686.633C282.337 686.633 284.957 682.244 285.115 673.466V671.761ZM332.952 698.947C325.09 698.947 318.727 696.611 313.865 691.938C309.002 687.233 306.571 681.123 306.571 673.608V672.282C306.571 667.04 307.534 662.414 309.46 658.404C311.418 654.394 314.259 651.3 317.985 649.121C321.711 646.911 326.132 645.806 331.247 645.806C338.446 645.806 344.13 648.048 348.298 652.531C352.466 656.983 354.55 663.204 354.55 671.192V677.397H322.816C323.385 680.27 324.632 682.528 326.558 684.17C328.484 685.812 330.979 686.633 334.042 686.633C339.094 686.633 343.041 684.865 345.882 681.328L353.176 689.948C351.187 692.695 348.361 694.89 344.698 696.532C341.067 698.142 337.152 698.947 332.952 698.947ZM331.152 658.12C326.479 658.12 323.701 661.215 322.816 667.403H338.92V666.172C338.983 663.614 338.336 661.641 336.978 660.251C335.62 658.831 333.678 658.12 331.152 658.12ZM375.674 646.753L376.195 652.768C379.731 648.126 384.61 645.806 390.83 645.806C396.166 645.806 400.145 647.4 402.766 650.589C405.418 653.778 406.792 658.578 406.886 664.988V698H390.877V665.651C390.877 663.062 390.356 661.167 389.314 659.967C388.272 658.736 386.378 658.12 383.631 658.12C380.505 658.12 378.184 659.352 376.668 661.814V698H360.707V646.753H375.674ZM413.754 671.998C413.754 663.883 415.506 657.489 419.011 652.815C422.516 648.142 427.41 645.806 433.694 645.806C438.272 645.806 442.125 647.605 445.25 651.205V625.25H461.259V698H446.908L446.103 692.506C442.819 696.8 438.651 698.947 433.599 698.947C427.505 698.947 422.674 696.611 419.106 691.938C415.538 687.264 413.754 680.618 413.754 671.998ZM429.715 672.992C429.715 682.086 432.368 686.633 437.672 686.633C441.209 686.633 443.735 685.149 445.25 682.181V662.667C443.798 659.636 441.304 658.12 437.767 658.12C432.841 658.12 430.173 662.099 429.763 670.056L429.715 672.992ZM495.124 698.947C487.262 698.947 480.899 696.611 476.037 691.938C471.174 687.233 468.743 681.123 468.743 673.608V672.282C468.743 667.04 469.706 662.414 471.632 658.404C473.59 654.394 476.431 651.3 480.157 649.121C483.883 646.911 488.304 645.806 493.419 645.806C500.618 645.806 506.302 648.048 510.47 652.531C514.638 656.983 516.722 663.204 516.722 671.192V677.397H484.988C485.557 680.27 486.804 682.528 488.73 684.17C490.656 685.812 493.151 686.633 496.213 686.633C501.265 686.633 505.212 684.865 508.054 681.328L515.348 689.948C513.359 692.695 510.533 694.89 506.87 696.532C503.239 698.142 499.324 698.947 495.124 698.947ZM493.324 658.12C488.651 658.12 485.872 661.215 484.988 667.403H501.092V666.172C501.155 663.614 500.508 661.641 499.15 660.251C497.792 658.831 495.85 658.12 493.324 658.12ZM537.846 646.753L538.367 652.768C541.903 648.126 546.782 645.806 553.002 645.806C558.338 645.806 562.317 647.4 564.938 650.589C567.59 653.778 568.963 658.578 569.058 664.988V698H553.049V665.651C553.049 663.062 552.528 661.167 551.486 659.967C550.444 658.736 548.55 658.12 545.803 658.12C542.677 658.12 540.356 659.352 538.84 661.814V698H522.879V646.753H537.846ZM596.529 634.012V646.753H604.959V657.836H596.529V681.281C596.529 683.207 596.876 684.549 597.571 685.307C598.265 686.064 599.639 686.443 601.691 686.443C603.27 686.443 604.596 686.349 605.67 686.159V697.574C602.797 698.489 599.797 698.947 596.671 698.947C591.177 698.947 587.119 697.653 584.499 695.063C581.878 692.474 580.567 688.543 580.567 683.27V657.836H574.031V646.753H580.567V634.012H596.529ZM636.077 698.947C628.215 698.947 621.852 696.611 616.99 691.938C612.127 687.233 609.696 681.123 609.696 673.608V672.282C609.696 667.04 610.659 662.414 612.585 658.404C614.543 654.394 617.384 651.3 621.11 649.121C624.836 646.911 629.257 645.806 634.372 645.806C641.571 645.806 647.255 648.048 651.423 652.531C655.591 656.983 657.675 663.204 657.675 671.192V677.397H625.941C626.51 680.27 627.757 682.528 629.683 684.17C631.609 685.812 634.104 686.633 637.167 686.633C642.219 686.633 646.166 684.865 649.007 681.328L656.301 689.948C654.312 692.695 651.486 694.89 647.823 696.532C644.192 698.142 640.277 698.947 636.077 698.947ZM634.277 658.12C629.604 658.12 626.826 661.215 625.941 667.403H642.045V666.172C642.108 663.614 641.461 661.641 640.103 660.251C638.745 658.831 636.803 658.12 634.277 658.12ZM690.971 683.602C690.971 682.244 690.261 681.154 688.84 680.333C687.419 679.513 684.719 678.66 680.741 677.776C676.762 676.892 673.478 675.739 670.889 674.318C668.3 672.866 666.326 671.113 664.969 669.061C663.611 667.009 662.932 664.656 662.932 662.004C662.932 657.299 664.874 653.431 668.758 650.4C672.642 647.337 677.725 645.806 684.009 645.806C690.766 645.806 696.197 647.337 700.302 650.4C704.407 653.463 706.459 657.489 706.459 662.478H690.45C690.45 658.373 688.287 656.32 683.961 656.32C682.288 656.32 680.883 656.794 679.746 657.741C678.609 658.657 678.041 659.809 678.041 661.199C678.041 662.62 678.736 663.772 680.125 664.656C681.514 665.54 683.725 666.267 686.756 666.835C689.819 667.403 692.503 668.082 694.808 668.872C702.512 671.524 706.364 676.276 706.364 683.128C706.364 687.801 704.28 691.606 700.112 694.542C695.976 697.479 690.608 698.947 684.009 698.947C679.62 698.947 675.704 698.158 672.263 696.579C668.821 695 666.137 692.853 664.211 690.138C662.285 687.422 661.322 684.565 661.322 681.565H676.241C676.304 683.933 677.094 685.67 678.609 686.775C680.125 687.848 682.067 688.385 684.435 688.385C686.614 688.385 688.24 687.943 689.313 687.059C690.419 686.175 690.971 685.022 690.971 683.602Z" fill="black"/>
</g>
<defs>
<clipPath id="clip0_206:11">
<rect width="850" height="750" fill="white"/>
</clipPath>
</defs>
</svg>
