<svg width="850" height="750" viewBox="0 0 850 750" fill="none" xmlns="http://www.w3.org/2000/svg">
<rect width="850" height="750" fill="#373D4A"/>
<path d="M399.768 313.721C385.408 324.372 368.015 330.147 350.136 330.201C331.528 330.201 314.456 323.961 300.488 313.721C288.488 323.721 276.52 338.041 266.728 355.689C243.96 396.697 241.448 438.761 261.128 449.673C269.896 454.665 279.144 450.921 288.68 441.737C286.895 451.631 286 461.666 286.008 471.721C286.008 518.729 304.248 556.713 326.696 556.713C340.232 556.713 346.936 542.873 350.152 521.705C353.352 542.729 360.072 556.713 373.512 556.713C395.864 556.713 414.248 518.713 414.248 471.721C414.248 461.161 413.256 451.081 411.56 441.753C421.16 450.953 430.376 454.761 439.176 449.705C458.808 438.793 456.264 396.745 433.512 355.721C423.752 338.057 411.752 323.753 399.752 313.753L399.768 313.721ZM350.12 314.201C359.114 314.197 368.019 312.423 376.327 308.978C384.636 305.533 392.184 300.486 398.541 294.124C404.899 287.762 409.941 280.21 413.38 271.9C416.819 263.589 418.587 254.683 418.584 245.689C418.581 236.695 416.806 227.789 413.361 219.481C409.917 211.173 404.869 203.625 398.507 197.267C392.145 190.91 384.594 185.868 376.283 182.429C367.972 178.99 359.066 177.221 350.072 177.225C331.904 177.231 314.482 184.454 301.639 197.306C288.797 210.157 281.586 227.584 281.592 245.753C281.598 263.921 288.822 281.343 301.673 294.185C314.525 307.028 331.952 314.239 350.12 314.233V314.201ZM520.792 401.721C544.92 401.721 564.504 382.137 564.504 357.977C564.504 333.817 544.888 314.201 520.776 314.201C509.167 314.205 498.035 318.818 489.826 327.027C481.618 335.236 477.004 346.368 477 357.977C477.008 369.585 481.626 380.716 489.838 388.922C498.049 397.127 509.183 401.737 520.792 401.737V401.721ZM574.072 428.233C567.832 416.953 560.184 407.801 552.504 401.401C543.544 407.961 532.664 411.961 520.776 411.961C508.872 411.961 497.96 407.961 489.048 401.401C481.368 407.801 473.72 416.953 467.448 428.233C452.888 454.441 451.288 481.321 463.864 488.297C469.464 491.497 475.384 489.097 481.464 483.241C480.351 489.564 479.795 495.972 479.8 502.393C479.8 532.473 491.448 556.745 505.8 556.745C514.44 556.745 518.76 547.897 520.808 534.377C522.856 547.817 527.144 556.729 535.752 556.729C550.04 556.729 561.784 532.441 561.784 502.393C561.784 495.673 561.144 489.209 560.056 483.257C566.184 489.129 572.088 491.577 577.72 488.329C590.232 481.385 588.6 454.489 574.072 428.281V428.233Z" fill="white"/>
</svg>
